<svg width="17" height="18" viewBox="0 0 17 18" fill="none" xmlns="http://www.w3.org/2000/svg">
<path d="M1 9C1 10.4834 1.43987 11.9334 2.26398 13.1668C3.08809 14.4001 4.25943 15.3614 5.62987 15.9291C7.00032 16.4968 8.50832 16.6453 9.96318 16.3559C11.418 16.0665 12.7544 15.3522 13.8033 14.3033C14.8522 13.2544 15.5665 11.918 15.8559 10.4632C16.1453 9.00832 15.9968 7.50032 15.4291 6.12987C14.8614 4.75943 13.9001 3.58809 12.6668 2.76398C11.4334 1.93987 9.98336 1.5 8.5 1.5C6.40329 1.50789 4.39081 2.32602 2.88333 3.78333L1 5.66667M1 5.66667V1.5M1 5.66667H5.16667M8.5 4.83333V9L11.8333 10.6667" stroke="#303F58" stroke-width="2" stroke-linecap="round" stroke-linejoin="round"/>
</svg>
