<svg width="20" height="20" viewBox="0 0 20 20" fill="none" xmlns="http://www.w3.org/2000/svg">
<path d="M16.6663 8.33329C16.6663 13.3333 9.99967 18.3333 9.99967 18.3333C9.99967 18.3333 3.33301 13.3333 3.33301 8.33329C3.33301 6.56518 4.03539 4.86949 5.28563 3.61925C6.53587 2.36901 8.23156 1.66663 9.99967 1.66663C11.7678 1.66663 13.4635 2.36901 14.7137 3.61925C15.964 4.86949 16.6663 6.56518 16.6663 8.33329Z" stroke="#303F58" stroke-width="2" stroke-linecap="round" stroke-linejoin="round"/>
<path d="M9.99967 10.8333C11.3804 10.8333 12.4997 9.714 12.4997 8.33329C12.4997 6.95258 11.3804 5.83329 9.99967 5.83329C8.61896 5.83329 7.49967 6.95258 7.49967 8.33329C7.49967 9.714 8.61896 10.8333 9.99967 10.8333Z" stroke="#303F58" stroke-width="2" stroke-linecap="round" stroke-linejoin="round"/>
</svg>
