<svg width="36" height="36" viewBox="0 0 36 36" fill="none" xmlns="http://www.w3.org/2000/svg">
<rect width="36" height="36" rx="18" fill="#820000"/>
<path d="M14.3333 16.6666C14.5174 16.6666 14.6666 16.5173 14.6666 16.3333C14.6666 16.1492 14.5174 15.9999 14.3333 15.9999C14.1492 15.9999 14 16.1492 14 16.3333C14 16.5173 14.1492 16.6666 14.3333 16.6666Z" fill="black"/>
<path d="M20 13.3333L24.2 17.5333C24.3491 17.6819 24.4675 17.8585 24.5482 18.053C24.629 18.2475 24.6706 18.456 24.6706 18.6666C24.6706 18.8772 24.629 19.0857 24.5482 19.2802C24.4675 19.4746 24.3491 19.6513 24.2 19.7999L21.3333 22.6666M16.3906 13.7239C16.1407 13.4739 15.8016 13.3333 15.448 13.3333H12C11.8232 13.3333 11.6536 13.4035 11.5286 13.5285C11.4036 13.6535 11.3333 13.8231 11.3333 13.9999V17.4479C11.3334 17.8015 11.4739 18.1406 11.724 18.3906L15.5266 22.1933C15.8297 22.4943 16.2395 22.6633 16.6666 22.6633C17.0938 22.6633 17.5036 22.4943 17.8066 22.1933L20.1933 19.8066C20.4944 19.5036 20.6634 19.0938 20.6634 18.6666C20.6634 18.2394 20.4944 17.8296 20.1933 17.5266L16.3906 13.7239ZM14.6666 16.3333C14.6666 16.5173 14.5174 16.6666 14.3333 16.6666C14.1492 16.6666 14 16.5173 14 16.3333C14 16.1492 14.1492 15.9999 14.3333 15.9999C14.5174 15.9999 14.6666 16.1492 14.6666 16.3333Z" stroke="white" stroke-width="2" stroke-linecap="round" stroke-linejoin="round"/>
</svg>
